<?xml version="1.0" standalone="no"?>
<!DOCTYPE svg PUBLIC "-//W3C//DTD SVG 20010904//EN"
 "http://www.w3.org/TR/2001/REC-SVG-20010904/DTD/svg10.dtd">
<svg version="1.0" xmlns="http://www.w3.org/2000/svg"
 width="512.000000pt" height="512.000000pt" viewBox="0 0 512.000000 512.000000"
 preserveAspectRatio="xMidYMid meet">
<metadata>
Created by potrace 1.16, written by Peter Selinger 2001-2019
</metadata>
<g transform="translate(0.000000,512.000000) scale(0.100000,-0.100000)"
fill="#000000" stroke="none">
<path d="M2995 4760 c-146 -23 -325 -96 -454 -187 -41 -28 -375 -355 -866
-847 -864 -864 -879 -881 -985 -1091 -64 -129 -114 -281 -135 -420 -23 -145
-16 -419 13 -545 115 -492 454 -876 915 -1039 164 -58 271 -75 472 -75 274 -1
457 40 690 155 230 113 227 110 1208 1089 494 492 910 913 925 934 23 33 27
52 30 115 2 64 -1 82 -20 116 -37 62 -96 98 -172 103 -35 2 -81 -1 -103 -8
-31 -10 -216 -190 -968 -940 -1016 -1013 -987 -987 -1180 -1061 -140 -55 -248
-72 -420 -66 -167 5 -260 26 -403 92 -313 145 -523 444 -563 804 -25 225 42
474 180 673 35 51 293 315 843 864 769 766 795 792 869 828 242 117 503 74
689 -113 87 -88 132 -165 160 -277 38 -147 25 -264 -47 -414 l-45 -95 -752
-753 c-413 -414 -766 -762 -784 -774 -53 -32 -100 -40 -157 -23 -54 15 -107
61 -124 108 -16 41 -13 113 5 150 9 18 290 307 624 642 488 490 610 618 620
648 20 64 9 158 -24 206 -57 81 -181 114 -271 72 -61 -29 -1271 -1238 -1314
-1314 -59 -102 -83 -181 -89 -294 -6 -128 8 -203 57 -308 74 -156 189 -259
360 -319 78 -27 98 -30 206 -30 105 0 130 4 200 28 156 54 145 44 986 885 851
851 857 858 936 1044 62 147 78 231 77 412 -1 139 -4 172 -26 256 -99 370
-380 651 -744 745 -111 29 -312 40 -419 24z"/>
</g>
</svg>
