<?xml version="1.0" standalone="no"?>
<!DOCTYPE svg PUBLIC "-//W3C//DTD SVG 20010904//EN"
 "http://www.w3.org/TR/2001/REC-SVG-20010904/DTD/svg10.dtd">
<svg version="1.0" xmlns="http://www.w3.org/2000/svg"
 width="512.000000pt" height="512.000000pt" viewBox="0 0 512.000000 512.000000"
 preserveAspectRatio="xMidYMid meet">
<metadata>
Created by potrace 1.16, written by Peter Selinger 2001-2019
</metadata>
<g transform="translate(0.000000,512.000000) scale(0.100000,-0.100000)"
fill="#000000" stroke="none">
<path d="M1308 5097 c-75 -32 -129 -76 -171 -140 -54 -82 -67 -134 -67 -269
l0 -118 -133 0 c-228 0 -353 -46 -487 -180 -82 -81 -136 -175 -161 -280 -12
-45 -14 -372 -14 -1835 l0 -1780 22 -70 c59 -184 196 -329 379 -398 l59 -22
1825 0 1825 0 59 22 c183 69 320 214 379 398 l22 70 0 1780 c0 1463 -2 1790
-14 1835 -53 219 -239 399 -456 445 -38 8 -116 15 -172 15 l-103 0 0 78 c-1
228 -72 369 -223 438 -55 26 -73 29 -162 29 -87 0 -107 -3 -157 -27 -75 -35
-142 -104 -181 -186 -30 -63 -32 -75 -35 -199 l-4 -133 -189 0 -189 0 0 108
c0 163 -30 251 -115 335 -25 25 -71 58 -103 74 -51 25 -67 28 -162 28 -123 0
-172 -18 -252 -93 -91 -85 -128 -188 -128 -359 l0 -93 -185 0 -185 0 0 78 c-1
230 -72 367 -228 440 -83 39 -213 42 -294 9z m225 -223 c14 -10 36 -37 49 -59
23 -40 23 -41 23 -425 l0 -385 -27 -46 c-61 -103 -188 -106 -262 -6 -21 28
-21 38 -21 437 0 399 0 409 21 437 39 53 83 75 140 71 29 -3 62 -13 77 -24z
m1128 3 c19 -12 44 -42 57 -67 22 -44 22 -50 22 -420 0 -370 0 -376 -22 -420
-59 -116 -201 -123 -269 -14 l-24 39 0 396 0 395 28 43 c47 71 141 93 208 48z
m1142 -3 c14 -10 36 -37 49 -59 23 -40 23 -41 23 -425 l0 -385 -27 -46 c-61
-103 -188 -106 -262 -6 -21 28 -21 38 -21 437 0 399 0 409 21 437 39 53 83 75
140 71 29 -3 62 -13 77 -24z m685 -2761 c-3 -1505 -4 -1570 -22 -1611 -22 -52
-95 -118 -145 -132 -50 -14 -3472 -14 -3522 0 -50 14 -123 80 -145 132 -18 41
-19 106 -22 1611 l-2 1567 1930 0 1930 0 -2 -1567z"/>
<path d="M940 2780 l0 -290 325 0 325 0 0 290 0 290 -325 0 -325 0 0 -290z"/>
<path d="M1800 2780 l0 -290 330 0 330 0 0 290 0 290 -330 0 -330 0 0 -290z"/>
<path d="M2660 2780 l0 -290 330 0 330 0 0 290 0 290 -330 0 -330 0 0 -290z"/>
<path d="M3530 2780 l0 -290 325 0 325 0 0 290 0 290 -325 0 -325 0 0 -290z"/>
<path d="M940 2010 l0 -290 325 0 325 0 0 290 0 290 -325 0 -325 0 0 -290z"/>
<path d="M1800 2010 l0 -290 330 0 330 0 0 290 0 290 -330 0 -330 0 0 -290z"/>
<path d="M2660 2010 l0 -290 330 0 330 0 0 290 0 290 -330 0 -330 0 0 -290z"/>
<path d="M3530 2010 l0 -290 325 0 325 0 0 290 0 290 -325 0 -325 0 0 -290z"/>
<path d="M940 1245 l0 -295 325 0 325 0 0 295 0 295 -325 0 -325 0 0 -295z"/>
<path d="M1800 1245 l0 -295 330 0 330 0 0 295 0 295 -330 0 -330 0 0 -295z"/>
<path d="M2660 1245 l0 -295 330 0 330 0 0 295 0 295 -330 0 -330 0 0 -295z"/>
<path d="M3530 1245 l0 -295 325 0 325 0 0 295 0 295 -325 0 -325 0 0 -295z"/>
</g>
</svg>
