<?xml version="1.0" standalone="no"?>
<!DOCTYPE svg PUBLIC "-//W3C//DTD SVG 20010904//EN"
 "http://www.w3.org/TR/2001/REC-SVG-20010904/DTD/svg10.dtd">
<svg version="1.0" xmlns="http://www.w3.org/2000/svg"
 width="512.000000pt" height="512.000000pt" viewBox="0 0 512.000000 512.000000"
 preserveAspectRatio="xMidYMid meet">
<metadata>
Created by potrace 1.16, written by Peter Selinger 2001-2019
</metadata>
<g transform="translate(0.000000,512.000000) scale(0.100000,-0.100000)"
fill="#000000" stroke="none">
<path d="M452 4795 c-159 -35 -310 -149 -384 -291 -72 -138 -68 -37 -68 -1559
0 -1325 1 -1371 19 -1399 31 -47 69 -66 133 -66 l56 0 244 173 c133 95 335
238 448 319 113 80 230 157 260 170 l55 23 1015 5 1015 5 67 26 c185 72 322
228 369 419 11 45 14 247 14 1065 0 992 0 1011 -20 1044 -11 19 -33 43 -48 55
l-28 21 -1542 2 c-1278 1 -1553 -1 -1605 -12z m2936 -1197 c-3 -892 -3 -904
-24 -948 -29 -62 -67 -105 -123 -138 l-46 -27 -1005 -5 c-893 -5 -1011 -8
-1060 -22 -83 -25 -155 -55 -201 -84 -39 -24 -528 -370 -597 -422 l-33 -25 3
1174 c3 1272 0 1201 58 1281 37 51 74 79 134 100 48 16 144 17 1474 18 l1423
0 -3 -902z"/>
<path d="M1004 3971 c-100 -61 -107 -195 -13 -262 l34 -24 922 0 c913 0 922 0
950 21 15 11 39 41 51 67 29 57 23 112 -15 158 -53 62 4 59 -990 59 -872 0
-909 -1 -939 -19z"/>
<path d="M1004 3271 c-100 -61 -107 -195 -13 -262 l34 -24 922 0 c913 0 922 0
950 21 15 11 39 41 51 67 29 57 23 112 -15 158 -53 62 4 59 -990 59 -872 0
-909 -1 -939 -19z"/>
<path d="M4109 3641 c-78 -16 -119 -69 -119 -154 0 -53 3 -61 39 -100 l40 -42
263 -5 c245 -5 266 -7 314 -29 63 -28 116 -80 146 -146 l23 -50 3 -1173 c2
-950 0 -1172 -10 -1166 -7 4 -150 105 -318 225 -324 230 -345 243 -455 280
l-70 24 -1010 5 c-1130 6 -1041 -1 -1128 79 -68 63 -89 122 -94 261 -3 79 -9
125 -20 148 -50 100 -209 101 -268 2 -17 -31 -20 -51 -19 -165 1 -152 17 -225
71 -328 68 -128 196 -231 353 -283 51 -17 123 -19 1065 -24 968 -5 1012 -6
1054 -24 24 -11 243 -161 485 -334 243 -173 451 -318 464 -323 62 -24 140 3
180 61 l22 33 0 1369 c0 1512 3 1432 -63 1552 -62 111 -140 188 -247 245 -103
54 -152 62 -420 66 -135 2 -261 1 -281 -4z"/>
</g>
</svg>
