<?xml version="1.0" standalone="no"?>
<!DOCTYPE svg PUBLIC "-//W3C//DTD SVG 20010904//EN"
 "http://www.w3.org/TR/2001/REC-SVG-20010904/DTD/svg10.dtd">
<svg version="1.0" xmlns="http://www.w3.org/2000/svg"
 width="512.000000pt" height="512.000000pt" viewBox="0 0 512.000000 512.000000"
 preserveAspectRatio="xMidYMid meet">
<metadata>
Created by potrace 1.16, written by Peter Selinger 2001-2019
</metadata>
<g transform="translate(0.000000,512.000000) scale(0.100000,-0.100000)"
fill="#000000" stroke="none">
<path d="M1355 4856 c-16 -8 -42 -26 -56 -42 -15 -16 -143 -201 -284 -411
-142 -211 -260 -383 -264 -383 -3 0 -52 70 -109 156 -89 135 -109 158 -145
174 -55 26 -93 25 -147 -2 -63 -32 -90 -77 -90 -148 0 -51 5 -65 43 -121 24
-35 110 -162 191 -282 121 -179 154 -221 186 -237 50 -25 110 -25 160 0 40 20
55 41 591 840 l144 215 0 66 c0 55 -4 72 -28 108 -45 68 -126 96 -192 67z"/>
<path d="M1980 4348 c-50 -34 -72 -71 -78 -126 -6 -64 18 -115 71 -150 l41
-27 1360 0 c1343 0 1361 0 1395 20 51 30 74 67 79 128 6 72 -17 120 -73 152
l-42 25 -1360 0 -1360 0 -33 -22z"/>
<path d="M1340 3202 c-28 -15 -91 -101 -308 -423 -150 -222 -276 -405 -280
-406 -4 -2 -52 65 -106 148 -55 83 -114 160 -130 172 -43 31 -142 31 -183 1
-51 -38 -73 -81 -73 -143 l0 -57 190 -281 c170 -251 196 -284 234 -302 54 -26
98 -27 152 0 47 22 14 -24 489 695 140 212 255 396 258 414 27 131 -125 244
-243 182z"/>
<path d="M1956 2695 c-46 -31 -69 -79 -70 -144 -1 -72 24 -117 83 -148 l44
-23 1359 0 c1329 0 1360 0 1397 20 50 25 88 71 97 116 15 78 -38 163 -114 184
-23 6 -545 10 -1402 12 -1351 3 -1365 3 -1394 -17z"/>
<path d="M1355 1576 c-16 -8 -42 -26 -56 -42 -15 -16 -143 -201 -284 -411
-142 -211 -260 -383 -264 -383 -3 0 -52 70 -109 156 -89 135 -109 158 -145
174 -55 26 -93 25 -147 -2 -64 -32 -90 -76 -90 -150 0 -33 7 -72 15 -88 27
-52 337 -504 368 -538 58 -60 159 -66 221 -11 18 15 185 259 372 541 l339 512
0 66 c0 56 -4 73 -28 109 -45 68 -126 96 -192 67z"/>
<path d="M1960 1069 c-38 -24 -68 -76 -75 -134 -9 -70 23 -131 85 -163 l45
-22 1376 2 1376 3 37 29 c123 93 63 272 -97 291 -29 3 -652 7 -1386 8 -1223 2
-1336 1 -1361 -14z"/>
</g>
</svg>
