<?xml version="1.0" standalone="no"?>
<!DOCTYPE svg PUBLIC "-//W3C//DTD SVG 20010904//EN"
 "http://www.w3.org/TR/2001/REC-SVG-20010904/DTD/svg10.dtd">
<svg version="1.0" xmlns="http://www.w3.org/2000/svg"
 width="512.000000pt" height="512.000000pt" viewBox="0 0 512.000000 512.000000"
 preserveAspectRatio="xMidYMid meet">
<metadata>
Created by potrace 1.16, written by Peter Selinger 2001-2019
</metadata>
<g transform="translate(0.000000,512.000000) scale(0.100000,-0.100000)"
fill="" stroke="#000002">
<path d="M174 4434 c-59 -21 -123 -80 -150 -138 l-24 -51 0 -1685 0 -1685 24
-51 c13 -27 43 -67 66 -87 79 -68 82 -68 601 -65 525 3 503 0 586 85 79 82 73
-63 73 1803 0 1866 6 1721 -73 1803 -83 85 -61 82 -592 84 -392 1 -477 -1
-511 -13z"/>
<path d="M2067 4436 c-52 -19 -97 -52 -130 -94 -60 -78 -57 19 -55 -1802 l3
-1665 21 -45 c26 -54 74 -104 128 -133 40 -22 47 -22 526 -22 479 0 486 0 526
22 54 29 102 79 128 133 l21 45 0 1685 0 1685 -21 45 c-26 54 -74 104 -128
133 -40 22 -50 22 -511 24 -377 2 -477 0 -508 -11z"/>
<path d="M3955 4437 c-52 -20 -101 -56 -129 -92 -59 -77 -56 31 -56 -1784 0
-1867 -6 -1722 73 -1804 83 -85 61 -82 586 -85 519 -3 522 -3 601 65 23 20 53
60 66 87 l24 51 0 1685 0 1685 -24 51 c-13 27 -42 66 -66 87 -78 67 -81 67
-589 66 -323 0 -465 -4 -486 -12z"/>
</g>
</svg>
