<?xml version="1.0" standalone="no"?>
<!DOCTYPE svg PUBLIC "-//W3C//DTD SVG 20010904//EN"
 "http://www.w3.org/TR/2001/REC-SVG-20010904/DTD/svg10.dtd">
<svg version="1.0" xmlns="http://www.w3.org/2000/svg"
 width="512.000000pt" height="512.000000pt" viewBox="0 0 512.000000 512.000000"
 preserveAspectRatio="xMidYMid meet">
<metadata>
Created by potrace 1.16, written by Peter Selinger 2001-2019
</metadata>
<g transform="translate(0.000000,512.000000) scale(0.100000,-0.100000)"
fill="#000000" stroke="none">
<path d="M368 4521 c-151 -49 -262 -161 -308 -310 -20 -62 -20 -101 -20 -1652
0 -1583 0 -1590 21 -1652 52 -157 173 -270 336 -312 50 -13 328 -15 2158 -15
2297 0 2166 -3 2279 58 65 35 153 123 188 188 60 111 58 60 58 1464 0 1108 -2
1294 -15 1343 -42 162 -156 284 -312 336 -61 21 -77 21 -1065 22 -750 0 -1012
3 -1037 12 -23 8 -71 52 -149 137 -283 309 -291 316 -377 357 l-80 38 -810 2
c-762 2 -813 1 -867 -16z m1616 -322 c28 -13 97 -83 211 -210 178 -199 240
-253 334 -291 l56 -23 1030 -5 c1013 -5 1031 -5 1065 -25 19 -12 43 -36 55
-55 20 -35 20 -49 23 -1260 2 -674 0 -1249 -3 -1278 -8 -66 -57 -126 -115
-142 -25 -7 -723 -9 -2101 -8 -2062 3 -2064 3 -2099 24 -19 11 -45 38 -57 60
l-23 39 0 1532 c0 1061 3 1540 11 1560 14 37 47 73 84 89 24 11 174 13 759 14
717 0 730 0 770 -21z"/>
<path d="M2507 2975 c-21 -7 -47 -21 -59 -32 -45 -40 -48 -60 -48 -293 l0
-220 -222 0 c-205 0 -226 -2 -256 -20 -48 -29 -72 -75 -72 -139 0 -68 26 -113
84 -140 39 -19 60 -21 254 -21 l211 0 3 -227 c3 -259 5 -264 86 -304 75 -37
153 -16 206 55 20 25 21 43 24 251 l3 224 224 3 c208 3 226 4 251 24 47 35 67
70 71 126 5 63 -17 112 -67 146 -32 21 -41 22 -256 22 l-224 0 0 218 c0 206
-1 219 -23 256 -37 67 -118 97 -190 71z"/>
</g>
</svg>
