<?xml version="1.0" standalone="no"?>
<!DOCTYPE svg PUBLIC "-//W3C//DTD SVG 20010904//EN"
 "http://www.w3.org/TR/2001/REC-SVG-20010904/DTD/svg10.dtd">
<svg version="1.0" xmlns="http://www.w3.org/2000/svg"
 width="512.000000pt" height="512.000000pt" viewBox="0 0 512.000000 512.000000"
 preserveAspectRatio="xMidYMid meet">
<metadata>
Created by potrace 1.16, written by Peter Selinger 2001-2019
</metadata>
<g transform="translate(0.000000,512.000000) scale(0.100000,-0.100000)"
fill="#000000" stroke="none">
<path d="M3552 4939 c-71 -28 -144 -101 -171 -174 -17 -45 -21 -79 -21 -170
l0 -115 -283 0 c-229 0 -294 -3 -338 -16 -148 -43 -274 -168 -320 -315 -18
-57 -19 -102 -19 -745 l0 -684 -320 0 -320 0 0 115 c0 91 -4 125 -21 170 -28
74 -100 146 -174 174 -54 20 -73 21 -605 21 -532 0 -551 -1 -605 -21 -74 -28
-146 -100 -174 -174 -20 -53 -21 -75 -21 -445 0 -370 1 -392 21 -445 28 -74
100 -146 174 -174 54 -20 73 -21 605 -21 532 0 551 1 605 21 74 28 146 100
174 174 17 45 21 79 21 170 l0 115 320 0 320 0 0 -684 c0 -643 1 -688 19 -745
46 -147 172 -272 320 -315 44 -13 109 -16 338 -16 l283 0 0 -115 c0 -91 4
-125 21 -170 28 -74 100 -146 174 -174 54 -20 73 -21 605 -21 532 0 551 1 605
21 74 28 146 100 174 174 20 53 21 75 21 445 0 370 -1 392 -21 445 -28 74
-100 146 -174 174 -54 20 -73 21 -605 21 -532 0 -551 -1 -605 -21 -74 -28
-146 -100 -174 -174 -17 -45 -21 -79 -21 -171 l0 -115 -257 3 c-237 3 -261 5
-292 23 -44 26 -70 62 -81 111 -5 21 -10 324 -10 672 l0 632 320 0 320 0 0
-115 c0 -91 4 -125 21 -170 28 -74 100 -146 174 -174 54 -20 73 -21 605 -21
532 0 551 1 605 21 74 28 146 100 174 174 20 53 21 75 21 445 0 370 -1 392
-21 445 -28 74 -100 146 -174 174 -54 20 -73 21 -605 21 -532 0 -551 -1 -605
-21 -74 -28 -146 -100 -174 -174 -17 -45 -21 -79 -21 -170 l0 -115 -320 0
-320 0 0 633 c0 347 5 650 10 671 11 49 37 85 81 111 31 18 55 20 292 23 l257
3 0 -115 c0 -92 4 -126 21 -171 28 -74 100 -146 174 -174 54 -20 73 -21 605
-21 532 0 551 1 605 21 36 13 73 38 105 69 31 32 56 69 69 105 20 53 21 75 21
445 0 370 -1 392 -21 445 -28 74 -100 146 -174 174 -54 20 -72 21 -608 20
-530 0 -554 -1 -605 -20z m1088 -619 l0 -320 -480 0 -480 0 0 320 0 320 480 0
480 0 0 -320z m-3200 -1760 l0 -320 -480 0 -480 0 0 320 0 320 480 0 480 0 0
-320z m3200 0 l0 -320 -480 0 -480 0 0 320 0 320 480 0 480 0 0 -320z m0
-1760 l0 -320 -480 0 -480 0 0 320 0 320 480 0 480 0 0 -320z"/>
</g>
</svg>
