<?xml version="1.0" standalone="no"?>
<!DOCTYPE svg PUBLIC "-//W3C//DTD SVG 20010904//EN"
 "http://www.w3.org/TR/2001/REC-SVG-20010904/DTD/svg10.dtd">
<svg version="1.0" xmlns="http://www.w3.org/2000/svg"
 width="512.000000pt" height="512.000000pt" viewBox="0 0 512.000000 512.000000"
 preserveAspectRatio="xMidYMid meet">
<metadata>
Created by potrace 1.16, written by Peter Selinger 2001-2019
</metadata>
<g transform="translate(0.000000,512.000000) scale(0.100000,-0.100000)"
fill="#000000" stroke="none">
<path d="M155 4826 c-55 -26 -94 -60 -128 -115 l-22 -36 0 -2035 0 -2035 25
-40 c34 -55 66 -84 125 -111 124 -59 269 -11 348 115 l22 36 0 2035 0 2035
-22 36 c-56 90 -140 139 -238 139 -42 0 -75 -7 -110 -24z"/>
<path d="M4745 4826 c-55 -26 -94 -60 -128 -115 l-22 -36 0 -2035 0 -2035 22
-36 c79 -126 224 -174 348 -115 59 27 91 56 125 111 l25 40 0 2035 0 2035 -22
36 c-56 90 -140 139 -238 139 -42 0 -75 -7 -110 -24z"/>
<path d="M3870 4647 c-61 -17 -112 -50 -144 -92 -60 -78 -56 61 -56 -2099 0
-1971 1 -1981 21 -2026 25 -55 71 -105 124 -133 55 -29 182 -31 239 -3 53 27
104 80 130 135 l21 46 0 1990 0 1990 -23 47 c-26 52 -88 113 -136 133 -49 20
-127 25 -176 12z"/>
<path d="M1063 4275 c-60 -30 -97 -70 -127 -135 l-21 -45 0 -1565 c0 -1745 -6
-1594 70 -1678 52 -58 112 -85 194 -86 119 -1 218 67 256 174 13 37 15 247 15
1599 l0 1556 -24 50 c-46 100 -119 147 -236 153 -65 3 -82 0 -127 -23z"/>
<path d="M2910 4279 c-55 -25 -105 -71 -133 -124 l-22 -40 -3 -1649 -2 -1649
23 -51 c46 -99 133 -158 236 -158 90 -1 136 17 196 75 93 91 86 -65 83 1793
-3 1807 3 1657 -69 1739 -72 81 -209 110 -309 64z"/>
<path d="M2024 3870 c-66 -20 -127 -72 -159 -134 l-30 -60 -3 -1150 c-3 -1291
-6 -1219 69 -1301 57 -62 116 -88 198 -88 113 0 199 55 247 158 l24 50 0 1156
c0 1278 4 1206 -64 1285 -64 74 -190 112 -282 84z"/>
</g>
</svg>
