<?xml version="1.0" standalone="no"?>
<!DOCTYPE svg PUBLIC "-//W3C//DTD SVG 20010904//EN"
 "http://www.w3.org/TR/2001/REC-SVG-20010904/DTD/svg10.dtd">
<svg version="1.0" xmlns="http://www.w3.org/2000/svg"
 width="512.000000pt" height="512.000000pt" viewBox="0 0 512.000000 512.000000"
 preserveAspectRatio="xMidYMid meet">
<metadata>
Created by potrace 1.16, written by Peter Selinger 2001-2019
</metadata>
<g transform="translate(0.000000,512.000000) scale(0.100000,-0.100000)"
fill="#000000" stroke="none">
<path d="M135 4404 c-84 -31 -135 -108 -135 -204 0 -100 58 -181 149 -209 55
-16 4767 -16 4822 0 91 28 149 109 149 209 0 98 -51 174 -139 205 -39 13 -306
15 -2425 14 -2056 0 -2386 -2 -2421 -15z"/>
<path d="M109 2757 c-24 -13 -57 -43 -74 -66 -28 -39 -30 -50 -30 -126 0 -76
2 -87 30 -126 17 -23 50 -53 74 -66 l44 -23 2407 0 2407 0 44 23 c24 13 58 43
74 66 28 39 30 50 30 126 0 76 -2 87 -30 126 -16 23 -50 53 -74 66 l-44 23
-2407 0 -2407 0 -44 -23z"/>
<path d="M147 1137 c-91 -29 -147 -107 -147 -207 0 -99 61 -185 147 -209 53
-15 4773 -15 4826 0 86 24 147 110 147 209 0 103 -61 185 -156 209 -64 16
-4765 14 -4817 -2z"/>
</g>
</svg>
