<?xml version="1.0" standalone="no"?>
<!DOCTYPE svg PUBLIC "-//W3C//DTD SVG 20010904//EN"
 "http://www.w3.org/TR/2001/REC-SVG-20010904/DTD/svg10.dtd">
<svg version="1.0" xmlns="http://www.w3.org/2000/svg"
 width="512.000000pt" height="512.000000pt" viewBox="0 0 512.000000 512.000000"
 preserveAspectRatio="xMidYMid meet">
<metadata>
Created by potrace 1.16, written by Peter Selinger 2001-2019
</metadata>
<g transform="translate(0.000000,512.000000) scale(0.100000,-0.100000)"
fill="#000000" stroke="none">
<path d="M872 3980 c-48 -30 -72 -75 -72 -140 0 -65 24 -110 72 -140 33 -20
54 -20 1448 -20 1394 0 1415 0 1448 20 48 30 72 75 72 140 0 65 -24 110 -72
140 -33 20 -54 20 -1448 20 -1394 0 -1415 0 -1448 -20z"/>
<path d="M3592 3020 c-18 -11 -41 -34 -52 -52 -19 -32 -20 -52 -20 -823 l0
-790 -272 272 c-150 149 -283 276 -295 282 -12 6 -46 11 -75 11 -97 0 -158
-61 -158 -158 0 -29 6 -65 14 -80 18 -33 842 -855 873 -871 28 -14 118 -14
146 0 31 16 855 838 873 871 8 15 14 51 14 80 0 97 -61 158 -158 158 -29 0
-63 -5 -75 -11 -12 -6 -145 -133 -294 -282 l-273 -272 0 790 c0 771 -1 791
-20 823 -30 48 -75 72 -140 72 -37 0 -66 -6 -88 -20z"/>
<path d="M872 2700 c-48 -30 -72 -75 -72 -140 0 -65 24 -110 72 -140 32 -19
52 -20 808 -20 756 0 776 1 808 20 48 30 72 75 72 140 0 65 -24 110 -72 140
-32 19 -52 20 -808 20 -756 0 -776 -1 -808 -20z"/>
<path d="M872 1420 c-48 -30 -72 -75 -72 -140 0 -65 24 -110 72 -140 32 -19
52 -20 648 -20 596 0 616 1 648 20 48 30 72 75 72 140 0 65 -24 110 -72 140
-32 19 -52 20 -648 20 -596 0 -616 -1 -648 -20z"/>
</g>
</svg>
